<?xml version="1.0" standalone="no"?>
<!DOCTYPE svg PUBLIC "-//W3C//DTD SVG 20010904//EN"
 "http://www.w3.org/TR/2001/REC-SVG-20010904/DTD/svg10.dtd">
<svg version="1.0" xmlns="http://www.w3.org/2000/svg"
 width="446.000000pt" height="543.000000pt" viewBox="0 0 446.000000 543.000000"
 preserveAspectRatio="xMidYMid meet">

<g transform="translate(0.000000,543.000000) scale(0.100000,-0.100000)"
fill="#000000" stroke="none">
<path d="M0 2715 l0 -2715 2230 0 2230 0 0 2715 0 2715 -2230 0 -2230 0 0
-2715z m2300 1934 c336 -37 688 -177 967 -385 95 -72 275 -244 353 -339 185
-227 323 -507 395 -800 44 -181 56 -287 56 -465 1 -942 -677 -1768 -1603
-1955 -892 -179 -1776 254 -2187 1073 -209 417 -261 923 -142 1389 102 399
348 781 676 1050 73 60 236 168 305 203 52 26 61 28 66 15 8 -21 0 -982 -8
-991 -4 -3 -32 -2 -62 3 -31 6 -56 7 -56 4 0 -3 20 -40 45 -81 25 -41 45 -80
45 -87 0 -7 -10 -32 -22 -55 -32 -62 -37 -171 -10 -224 24 -47 76 -99 91 -90
22 14 79 113 85 149 8 43 -13 130 -46 188 l-20 36 45 79 c25 43 44 81 41 85
-2 4 -21 3 -41 -2 -80 -18 -73 -70 -73 502 l0 510 67 31 c162 73 393 137 573
157 171 20 276 20 460 0z m-1046 -1575 c19 -18 21 -65 4 -82 -30 -30 -98 -3
-98 39 0 54 57 80 94 43z"/>
<path d="M2781 3645 c-17 -20 -42 -57 -55 -84 l-25 -48 -83 -7 c-46 -3 -116
-11 -156 -18 -72 -11 -73 -10 -90 13 -33 48 -109 122 -119 116 -20 -12 -35
-106 -29 -170 6 -52 3 -69 -14 -105 -12 -25 -24 -74 -27 -113 -6 -75 11 -208
33 -251 8 -15 14 -29 14 -32 0 -12 -80 -49 -153 -70 -45 -14 -74 -25 -64 -25
11 -1 50 8 87 20 94 28 118 21 47 -14 -31 -15 -57 -29 -57 -31 0 -7 61 7 66
15 3 5 15 9 26 9 16 0 4 -16 -53 -70 -41 -38 -69 -70 -64 -70 6 0 21 12 35 27
26 27 141 105 173 116 11 4 32 -4 58 -22 22 -16 58 -32 79 -36 39 -7 40 -8 40
-49 0 -66 -36 -180 -79 -246 -118 -182 -160 -419 -102 -571 32 -84 55 -103
142 -123 195 -43 320 -49 362 -16 23 18 32 19 64 11 47 -12 217 -12 260 1 24
7 33 16 35 36 3 25 7 27 50 30 40 3 52 -1 73 -22 32 -32 32 -56 -1 -87 -25
-24 -30 -24 -243 -29 -185 -4 -221 -8 -244 -23 -47 -31 -49 -108 -2 -129 25
-11 98 -7 385 23 134 14 168 26 223 81 46 46 47 48 47 111 0 52 -5 71 -29 109
-35 55 -111 96 -195 105 -40 4 -56 10 -56 21 0 8 9 67 20 131 53 310 45 468
-40 811 -48 193 -49 174 11 193 28 10 61 18 73 18 11 1 3 5 -19 8 l-40 6 30
18 c17 10 22 16 12 13 -11 -4 -31 -9 -45 -12 -24 -5 -25 -4 -10 8 9 7 25 19
35 25 16 11 15 11 -7 4 -14 -5 -42 -16 -62 -25 l-37 -16 -40 73 c-22 39 -65
103 -95 140 -45 57 -55 77 -61 120 -7 58 -34 137 -45 137 -5 0 -22 -16 -39
-35z m-9 -307 c75 -42 99 -138 55 -211 -31 -52 -72 -77 -125 -77 -49 0 -75 11
-114 48 -32 30 -36 42 -9 35 21 -5 51 21 51 46 0 29 -26 44 -61 37 -30 -6 -31
-5 -24 22 3 15 18 42 32 61 48 62 126 78 195 39z m-322 -48 c86 -61 79 -194
-12 -250 -50 -30 -100 -26 -143 11 l-35 31 25 24 c14 13 25 28 25 34 0 19 -39
50 -56 43 -15 -5 -16 -2 -10 27 18 93 128 135 206 80z m48 -297 c-2 -10 -12
-18 -23 -18 -11 0 -21 8 -23 18 -3 13 3 17 23 17 20 0 26 -4 23 -17z m27 -99
c11 -8 4 -11 -29 -11 l-43 0 16 29 c15 26 17 27 29 10 7 -9 19 -22 27 -28z
m412 -980 c-3 -3 -12 -4 -19 -1 -8 3 -5 6 6 6 11 1 17 -2 13 -5z"/>
<path d="M1225 3051 c-8 -15 3 -31 21 -31 9 0 14 7 12 17 -4 20 -24 28 -33 14z"/>
</g>
</svg>
